PathFileType	4	(X/Y/Z)	D:\Long Term Storage\D'Arcy Smith\Coord19.trc
DataRate	CameraRate	NumFrames	NumMarkers	Units	OrigDataRate	OrigDataStartFrame	OrigNumFrames
120.00	120.00	      63	4	mm	120.00	3065	      4903
Frame#	Time	M1			M2			M3			M4			
		X1	Y1	Z1	X2	Y2	Z2	X3	Y3	Z3	X4	Y4	Z4	

3065	25.533	646.90259	338.17139	276.21310	959.19794	399.19290	558.00818							
3066	25.542	650.21063	343.27338	254.10899	959.99237	398.51804	556.10199							
3067	25.550	653.36829	349.86102	232.32394	960.58948	397.04053	553.12909							
3068	25.558	656.33765	357.76022	211.00388	961.29755	394.59604	549.35718							
3069	25.567	659.02014	366.97849	190.03171	961.90771	391.51831	544.92822							
3070	25.575	661.23541	377.03833	170.02109	962.46588	387.48343	539.05475							
3071	25.583	663.74762	389.05457	150.65918	963.21344	382.91879	532.36084							
3072	25.592	665.51453	401.31860	132.82610	963.53131	377.80637	525.80017							
3073	25.600	666.83838	413.92889	116.11215	964.22302	372.09085	516.81561							
3074	25.608	668.11090	427.75461	100.68153	964.93463	365.68896	506.77701							
3075	25.617	669.21979	441.45786	86.69716	965.55988	358.95483	496.03998							
3076	25.625	670.08502	455.11942	74.31446	966.42413	352.37210	484.98297							
3077	25.633	670.71741	468.49414	63.34492	967.10925	345.38547	472.73721							
3078	25.642	671.35101	482.25125	53.48907	968.07147	338.55106	458.61023							
3079	25.650	671.63391	494.83011	45.38383	969.23254	331.72852	443.28726							
3080	25.658	671.76740	505.77942	39.05210	970.57056	324.94272	425.50696							
3081	25.667	672.13361	516.75037	33.22734	972.29291	318.76190	409.84686							
3082	25.675	672.41998	526.49481	28.60736	973.15228	313.87079	393.51633							
3083	25.683	672.70844	535.46967	24.74076	974.60712	309.21429	376.49533							
3084	25.692	672.67322	542.04138	22.50033	976.47278	305.45770	358.59998							
3085	25.700	673.18042	548.32349	20.73686	977.83685	302.62003	341.24506							
3086	25.708	673.51379	553.34125	19.41389	979.60278	300.55072	323.76279							
3087	25.717	674.17926	557.34186	18.62692	981.41888	299.38644	306.38843							
3088	25.725	675.06775	560.45813	18.30291	983.47394	298.69452	288.92859							
3089	25.733	675.69415	562.16443	18.26709	985.30072	299.44284	272.06171							
3090	25.742	676.47516	563.19214	18.75575	987.00244	300.38937	255.43240							
3091	25.750	677.67371	563.23059	19.50255	988.78864	302.16177	239.46019							
3092	25.758	678.59473	562.25568	20.54347	990.55243	304.27664	224.45117							
3093	25.767	679.61584	560.59686	22.68857	991.97943	306.91602	209.94641							
3094	25.775	681.09265	558.35138	23.24282	993.41840	310.06757	196.06290							
3095	25.783	682.49677	555.09802	25.03007	994.76990	313.31018	183.05167							
3096	25.792	684.23901	551.52966	26.74184	995.92188	316.94891	171.09686							
3097	25.800	685.97882	546.71991	29.29005	996.89374	320.60779	159.65038							
3098	25.808	687.70343	541.38269	31.89144	997.68573	324.49023	149.43524							
3099	25.817	689.88867	535.35797	34.93546	998.18378	328.09351	140.16286							
3100	25.825	691.91431	528.62610	38.43064	998.62964	331.61630	131.66606							
3101	25.833	694.05463	521.01141	42.49232	998.92224	334.92947	123.84406							
3102	25.842	696.32916	512.87939	47.24216	998.81940	337.98746	117.23688							
3103	25.850	698.84137	504.30341	52.47805	998.71204	340.74149	111.76679							
3104	25.858	700.39917	493.91309	60.51131	998.20599	343.11008	106.17648							
3105	25.867	702.63708	483.82565	67.43578	997.70001	344.92404	102.32661							
3106	25.875	705.88483	473.33237	75.86724	996.92810	346.29343	99.49850							
3107	25.883	708.65204	462.26071	85.12457	996.03992	347.27441	97.58572							
3108	25.892	711.09808	450.84814	96.99017	994.99054	347.67294	96.21066							
3109	25.900	713.71277	439.26791	107.23226	993.94928	347.71848	97.04681							
3110	25.908	715.79834	426.49323	121.25012	992.65100	346.88431	97.14754							
3111	25.917	717.71161	414.76282	136.24956	991.43109	345.87421	98.54023							
3112	25.925	719.30096	403.77945	152.42110	990.08698	344.19470	101.09888							
3113	25.933	719.68091	391.90588	170.50632	988.80298	342.15329	105.15543							
3114	25.942	719.98346	381.36032	189.34959	987.26630	339.50998	109.56511							
3115	25.950	719.37799	371.51056	209.26108	985.95154	336.62369	114.79878							
3116	25.958	718.27380	362.71030	230.11270	984.44427	333.24933	121.01155							
3117	25.967	716.55566	355.68533	251.72507	983.09174	329.56061	128.04196							
3118	25.975	713.93616	349.16153	273.85297	981.72321	325.72195	136.09042							
3119	25.983	709.94385	343.75616	296.03061	980.37219	321.70490	144.87357							
3120	25.992	706.16400	340.40082	319.30588	979.10706	317.55475	154.52039							
3121	26.000	701.10608	338.09277	341.73563	977.74548	313.71744	164.69714							
3122	26.008	695.37238	337.31824	363.96283	976.60571	309.89786	175.85052							
3123	26.017	689.17511	337.69470	385.28030	975.40564	306.29404	187.44186							
3124	26.025	682.62280	339.49857	405.99915	974.23138	302.97455	199.88428							
3125	26.033	676.18597	342.79449	425.86865	972.99683	299.93896	212.81047							
3126	26.042	669.10828	346.79843	444.64197	971.84351	297.29837	226.19984							
3127	26.050	662.07233	351.66803	461.83038	970.69629	294.98041	239.58267							
